<?xml version="1.0" encoding="UTF-8"?><svg id="_레이어_2" xmlns="http://www.w3.org/2000/svg" viewBox="0 0 907 1209"><defs><style>.cls-1{fill:none;}.cls-2{fill:#3a519b;}</style></defs><g id="_레이어_1-2"><path class="cls-2" d="m24.94,551.82c-.76,6.35-.3,13.91.6,20.86l7.25,54.42c.6,4.23,1.06,8.31,1.36,11.64l6.8-17.69,17.84-47.01c2.57-6.8,5.14-15.57,6.65-22.67,1.81.3,4.99.3,8.46.3s6.8,0,8.77-.3c1.21,7.11,2.57,13.3,4.84,20.26l16.63,51.09,5.29,16.17c.91-4.69,1.97-10.13,2.87-14.06l9.52-48.37c.76-4.38,1.21-8.16,1.21-11.79,0-4.99-.75-9.22-2.27-12.7,3.32.15,7.11.15,10.88.15s8.16,0,10.43-.3l.76,1.06c-3.48,6.5-6.35,16.48-7.86,22.82l-16.17,67.11c-1.36,5.44-3.02,10.28-3.33,16.48-2.12-.15-5.29-.3-8.62-.3s-6.8.15-9.07.3c-.3-3.17-1.06-6.8-2.87-11.79l-21.61-62.28c-1.36-3.93-2.42-7.71-3.33-10.88l-4.38,12.09-23.13,58.5c-1.96,5.29-3.48,8.77-4.23,14.36-2.27-.15-5.29-.3-8.31-.3-3.33,0-6.8.15-9.37.3-.46-4.38-.91-8.16-1.66-12.4l-10.73-65.3c-1.21-6.65-4.54-20.56-8.16-29.63,3.32.15,6.65.15,10.58.15,4.53,0,10.88,0,14.36-.3Z"/><path class="cls-2" d="m239.26,619.54c-5.74-.15-12.09-.3-18.59-.3s-13.15.15-18.74.3l-6.35,17.69c-.91,2.72-2.12,7.71-2.12,12.7,0,2.42.3,4.69.91,7.25-3.32-.15-6.65-.3-9.98-.3-3.63,0-7.4.15-11.19.3l-.6-1.06c4.08-7.41,8.16-15.42,11.79-24.64l24.94-61.52c3.63-8.92,4.69-11.94,6.35-18.9,4.38-.3,12.85-1.36,18.14-2.42.75,5.14,1.96,8.77,4.38,15.42l24.64,66.66c4.69,12.55,9.37,21.61,12.09,26.45-3.02-.3-7.86-.3-11.94-.3-4.69,0-8.77.15-13.3.45-1.06-8.46-2.72-15.11-5.75-23.73l-4.69-14.06Zm-17.69-53.51l-16.17,43.53c4.69.3,9.98.3,15.27.3s10.43,0,15.26-.3l-14.36-43.53Z"/><path class="cls-2" d="m350.2,560.14c-2.72,0-4.99.15-10.13.75-.3,5.75-.6,9.98-.6,17.69v50.03c0,13.76,1.06,22.37,3.02,28.57-2.42-.15-6.8-.3-11.19-.3s-8.92.15-11.64.3c1.51-10.28,1.96-15.42,1.96-28.72v-48.82c0-10.28-.6-21.16-3.02-27.66,3.93.15,7.1.15,10.43.15,9.98,0,16.93-.45,29.32-.45,11.64,0,17.53,1.36,22.67,5.59,4.99,4.08,7.56,10.28,7.56,18.44,0,14.21-9.07,21.61-21.16,26.3,4.54,6.05,10.73,15.57,17.69,26,8.77,13.15,16.93,23.88,23.43,27.81l-.6,1.36c-9.98.3-18.74.3-25.7.91-2.42-4.08-4.54-8.01-6.96-12.24-5.29-8.92-11.79-18.74-18.59-28.42-4.99-7.11-9.83-12.7-13.61-16.63l.46-1.81c2.11.15,5.29.6,8.61,0,8.16-.76,17.84-6.05,17.84-19.95,0-12.09-7.25-18.9-19.8-18.9Z"/><path class="cls-2" d="m482.14,560.14c-2.72,0-4.99.15-10.13.75-.3,5.75-.6,9.98-.6,17.69v50.03c0,13.76,1.06,22.37,3.02,28.57-2.42-.15-6.8-.3-11.19-.3s-8.92.15-11.64.3c1.51-10.28,1.96-15.42,1.96-28.72v-48.82c0-10.28-.6-21.16-3.02-27.66,3.93.15,7.1.15,10.43.15,9.98,0,16.93-.45,29.32-.45,11.64,0,17.53,1.36,22.67,5.59,4.99,4.08,7.56,10.28,7.56,18.44,0,14.21-9.07,21.61-21.16,26.3,4.54,6.05,10.73,15.57,17.69,26,8.77,13.15,16.93,23.88,23.43,27.81l-.6,1.36c-9.98.3-18.74.3-25.7.91-2.42-4.08-4.54-8.01-6.96-12.24-5.29-8.92-11.79-18.74-18.59-28.42-4.99-7.11-9.83-12.7-13.61-16.63l.46-1.81c2.11.15,5.29.6,8.61,0,8.16-.76,17.84-6.05,17.84-19.95,0-12.09-7.25-18.9-19.8-18.9Z"/><path class="cls-2" d="m604.56,551.82c-1.06,9.07-1.51,16.33-1.51,27.82v48.97c0,13.76,1.06,22.37,3.02,28.57-2.72-.3-8.01-.3-11.49-.3-4.08,0-8.31.15-11.34.3,1.51-8.01,1.96-18.14,1.96-28.72v-48.82c0-10.28-.6-21.01-3.02-27.82,3.32.15,7.25.3,10.58.3,4.84,0,8.46-.15,11.79-.3Z"/><path class="cls-2" d="m655.04,605.33c0-33.26,24.34-57.29,57.59-57.29s54.72,22.37,54.72,54.57c0,34.31-24.49,58.35-59.1,58.35-31.59,0-53.21-22.52-53.21-55.63Zm91.75,1.06c0-29.17-14.21-48.67-35.22-48.67-22.22,0-35.82,16.93-35.82,44.89s14.36,48.52,35.82,48.52,35.22-17.23,35.22-44.74Z"/><path class="cls-2" d="m848.65,560.14c-2.72,0-4.99.15-10.13.75-.3,5.75-.6,9.98-.6,17.69v50.03c0,13.76,1.06,22.37,3.02,28.57-2.42-.15-6.8-.3-11.19-.3s-8.92.15-11.64.3c1.51-10.28,1.96-15.42,1.96-28.72v-48.82c0-10.28-.6-21.16-3.02-27.66,3.93.15,7.1.15,10.43.15,9.98,0,16.93-.45,29.32-.45,11.64,0,17.53,1.36,22.67,5.59,4.99,4.08,7.56,10.28,7.56,18.44,0,14.21-9.07,21.61-21.16,26.3,4.54,6.05,10.73,15.57,17.69,26,8.77,13.15,16.93,23.88,23.43,27.81l-.6,1.36c-9.98.3-18.74.3-25.7.91-2.42-4.08-4.54-8.01-6.96-12.24-5.29-8.92-11.79-18.74-18.59-28.42-4.99-7.11-9.83-12.7-13.61-16.63l.46-1.81c2.11.15,5.29.6,8.61,0,8.16-.76,17.84-6.05,17.84-19.95,0-12.09-7.25-18.9-19.8-18.9Z"/><rect class="cls-1" width="907" height="1209"/></g></svg>