<?xml version="1.0" encoding="UTF-8"?><svg id="_레이어_2" xmlns="http://www.w3.org/2000/svg" viewBox="0 0 1029.5 81.71"><defs><style>.cls-1{fill:#3a519b;}</style></defs><g id="_레이어_1-2"><path class="cls-1" d="m2.21,22.7C2.21,15.17,1.77,7.2,0,2.44c2.88.11,4.76.11,7.2.11,3.88,0,6.64,0,9.08-.22-.66,6.98-.88,12.73-.88,20.37v11.4c4.76.22,13.62.33,19.82.33,5.42,0,14.84-.11,20.7-.33v-10.74c0-10.08-.66-16.5-2.21-20.93,2.43.11,5.31.11,8.08.11s5.76,0,8.41-.11c-.88,6.75-1.11,12.73-1.11,18.38v37.75c0,10.08.66,16.39,2.21,20.93-2.33-.11-5.32-.22-8.3-.22s-6.09.11-8.64.22c1-6.42,1.55-12.95,1.55-21.04v-16.16c-7.09-.22-13.84-.33-20.81-.33-6.31,0-12.84.11-19.82.33v16.28c0,10.08.66,16.39,2.21,20.93-1.88-.11-5.09-.22-8.3-.22s-6.53.11-8.53.22c.89-6.31,1.55-9.63,1.55-21.04V22.7Z"/><path class="cls-1" d="m127.56,2.33c-.77,7.31-1,13.84-1,20.37v22.92c0,10.08.22,13.29,1.88,17.38,2.66,6.42,9.19,10.41,18.49,10.41s15.72-3.21,19.49-10.41c1.77-3.77,2.21-12.29,2.21-19.6v-21.48c0-8.41-.66-14.51-2.32-19.49,1.66.11,3.76.11,5.87.11,2.77,0,5.65,0,8.08-.11-1.11,7.53-1.44,10.74-1.44,20.93v29.34c0,17.5-11.63,29.01-33.22,29.01-17.16,0-32.22-6.2-32.22-27.24v-32c0-7.53-.44-15.5-2.21-20.15,2.44.11,4.43.22,7.2.22,3.88,0,6.86,0,9.19-.22Z"/><path class="cls-1" d="m307.15,79.17c-2.99,0-5.98.11-8.75.33.44-6.64.67-12.29.11-19.26l-2.66-37.42c-.22-2.55-.44-5.65-.44-8.41-1.33,3.21-2.66,6.75-3.88,9.52l-17.94,42.3c-1.99,4.76-3.32,9.3-4.21,14.39-1.55-.11-3.32-.22-4.98-.22s-3.1.11-4.54.22c-.33-2.22-1.33-5.76-2.77-8.97l-19.93-46.72c-1.33-2.99-2.55-6.2-3.32-8.64l-.55,7.75-2.99,38.2c-.33,4.54,0,13.4,1.11,17.27-1.88-.11-4.43-.22-7.2-.22-2.1,0-4.32,0-6.09.22,1.33-4.21,2.66-11.63,3.21-18.05l3.65-40.64c.44-5.98.67-12.29-.33-18.38,2.55.11,5.87.11,8.64.11,3.65,0,5.98-.11,9.41-.22,1,3.76,3.32,9.74,4.98,13.51l15.83,38.53c1.11,2.55,1.99,5.31,3.1,8.19.77-2.32,1.77-4.87,2.99-7.75l16.16-37.76c1.99-4.76,2.99-7.53,5.09-14.73,2.88.22,5.76.22,9.08.22,2.77,0,6.09,0,8.53-.11-.44,4.76-.22,7.64,0,11.63l2.77,44.73c.44,7.53,1.55,14.39,3.99,20.7-2.55-.22-5.43-.33-8.08-.33Z"/><path class="cls-1" d="m391.75,51.93c-4.21-.11-8.86-.22-13.62-.22s-9.63.11-13.73.22l-4.65,12.95c-.67,1.99-1.55,5.65-1.55,9.3,0,1.77.22,3.43.66,5.32-2.43-.11-4.87-.22-7.31-.22-2.66,0-5.43.11-8.19.22l-.44-.77c2.99-5.43,5.98-11.29,8.64-18.05l18.27-45.06c2.66-6.53,3.43-8.75,4.65-13.84,3.21-.22,9.41-1,13.29-1.77.55,3.77,1.44,6.42,3.21,11.29l18.05,48.83c3.43,9.19,6.86,15.83,8.86,19.38-2.22-.22-5.76-.22-8.75-.22-3.43,0-6.42.11-9.74.33-.78-6.2-1.99-11.07-4.21-17.38l-3.43-10.3Zm-12.95-39.2l-11.85,31.89c3.43.22,7.31.22,11.18.22s7.64,0,11.18-.22l-10.52-31.89Z"/><path class="cls-1" d="m467.93,2.33c1.88,3.32,3.1,5.87,7.31,11.51l27.79,36.09,7.31,9.52c-.11-1.99-.22-4.1-.22-8.08v-22.14c0-9.19-.44-18.38-2.88-26.79,1.77.11,4.65.11,7.42.11,2.33,0,4.65,0,6.42-.11-1.44,4.98-1.44,18.49-1.44,31.78v30.45c0,5.2.33,10.74,1.22,15.94-1.33-.11-3.65-.11-5.43-.11-2.1,0-4.21,0-5.65.11-2.22-3.43-4.32-6.53-6.86-9.85l-36.43-46.39c-1.66-2.32-3.65-4.76-5.09-6.75.11,1.33.11,2.99.11,4.87v35.32c0,8.53.55,15.06,2.77,21.7-2.1-.11-4.65-.22-7.09-.22s-4.98.11-6.64.22c1.44-6.75,1.55-11.74,1.55-19.71V22.92c0-5.54-.33-15.83-2.22-20.48,3.1.11,5.2.11,8.3.11,4.21,0,7.64-.11,9.74-.22Z"/><path class="cls-1" d="m625.13,2.33c-.78,6.64-1.11,11.96-1.11,20.37v35.87c0,10.08.78,16.39,2.22,20.93-1.99-.22-5.87-.22-8.41-.22-2.99,0-6.09.11-8.3.22,1.11-5.87,1.44-13.29,1.44-21.04V22.7c0-7.53-.44-15.39-2.22-20.37,2.44.11,5.32.22,7.75.22,3.54,0,6.2-.11,8.64-.22Z"/><path class="cls-1" d="m685.03,2.33c1.88,3.32,3.1,5.87,7.31,11.51l27.79,36.09,7.31,9.52c-.11-1.99-.22-4.1-.22-8.08v-22.14c0-9.19-.44-18.38-2.88-26.79,1.77.11,4.65.11,7.42.11,2.32,0,4.65,0,6.42-.11-1.44,4.98-1.44,18.49-1.44,31.78v30.45c0,5.2.33,10.74,1.22,15.94-1.33-.11-3.65-.11-5.43-.11-2.1,0-4.21,0-5.65.11-2.21-3.43-4.32-6.53-6.86-9.85l-36.43-46.39c-1.66-2.32-3.65-4.76-5.09-6.75.11,1.33.11,2.99.11,4.87v35.32c0,8.53.55,15.06,2.77,21.7-2.1-.11-4.65-.22-7.09-.22s-4.98.11-6.64.22c1.44-6.75,1.55-11.74,1.55-19.71V22.92c0-5.54-.33-15.83-2.22-20.48,3.1.11,5.2.11,8.3.11,4.21,0,7.64-.11,9.74-.22Z"/><path class="cls-1" d="m788.23,2.55c7.75,0,17.27-.33,25.36-.33,9.52,0,17.49,1,23.81,4.54,9.85,5.54,15.5,16.72,15.5,30.56,0,24.14-16.94,42.41-44.95,42.41-5.76,0-11.63-.44-18.27-.44-3.43,0-7.86.11-10.19.22.77-5.65,1.55-7.86,1.55-21.04V22.7c0-7.53-.44-15.5-2.22-20.26,2.88.11,6.98.11,9.41.11Zm42.63,14.84c-5.76-6.64-13.95-8.19-23.25-8.19-4.65,0-8.86.33-13.07.55-.11,3.77-.33,8.53-.33,12.84v35.76c0,12.62,1.77,13.95,14.95,13.95,17.49,0,29.01-11.29,29.01-31.44,0-9.96-2.55-17.94-7.31-23.47Z"/><path class="cls-1" d="m914.68,34.43c5.54,0,10.08-.33,15.28-.88l.89.77c-1.22,2.55-2.33,5.76-3.1,8.41-5.76-.55-9.85-.77-14.73-.77h-8.64v18.16c0,9.41,1.33,12.29,13.06,12.29,6.98,0,13.73-.55,19.38-5.98l1.66.66c-1.11,4.1-2.1,8.75-2.77,12.85-11.29-.44-20.37-.67-28.46-.67s-13.06.11-17.49.22c.88-5.54,1.55-12.51,1.55-21.04V22.7c0-7.53-.44-15.5-2.22-20.26,2.88.11,5.87.11,7.75.11h20.48c6.2,0,9.85-.11,16.83-.33-1.44,3.65-2.77,7.53-3.65,11.85l-1.55.22c-3.77-4.76-10.19-5.32-16.39-5.32-1.88,0-4.54.11-7.64.33-.22,3.1-.44,8.3-.44,12.95v12.18h10.19Z"/><path class="cls-1" d="m975.14,2.55c3.54,0,7.2,0,9.74-.22.44,2.88,1.44,5.87,3.43,9.74l10.41,19.93,8.53-16.17c1.11-2.32,2.77-7.64,2.77-11.29,0-.77,0-1.33-.11-2.1,1.88.11,4.65.11,6.98.11,3.43,0,6.53-.11,8.97-.22l.33,1c-3.65,4.1-6.98,8.64-9.85,13.73l-12.51,21.04,15.61,26.91c3.99,6.86,6.86,10.74,10.08,13.4l-.22,1c-5.32.11-12.51.22-18.38.55-.66-2.77-2.88-7.97-4.65-11.29l-12.95-23.47-10.74,19.93c-2.33,4.65-3.1,8.3-3.1,10.74,0,1.22.11,2.32.44,3.65-2.55-.11-5.32-.22-7.86-.22-2.88,0-5.65.11-8.08.22l-.22-.88c2.32-2.99,4.54-6.09,7.97-12.07l16.61-27.9-11.51-20.37c-1.88-3.32-7.53-13.06-10.08-15.83,2.55.11,4.98.11,8.41.11Z"/></g></svg>