<?xml version="1.0" encoding="utf-8"?>
<!-- Generator: Adobe Illustrator 27.7.0, SVG Export Plug-In . SVG Version: 6.00 Build 0)  -->
<svg version="1.1" id="_레이어_2" xmlns="http://www.w3.org/2000/svg" xmlns:xlink="http://www.w3.org/1999/xlink" x="0px"
	 y="0px" viewBox="0 0 1029.5 81.7" style="enable-background:new 0 0 1029.5 81.7;" xml:space="preserve">
<g id="_레이어_1-2">
	<path d="M2.2,22.7C2.2,15.2,1.8,7.2,0,2.4c2.9,0.1,4.8,0.1,7.2,0.1c3.9,0,6.6,0,9.1-0.2c-0.7,7-0.9,12.7-0.9,20.4v11.4
		c4.8,0.2,13.6,0.3,19.8,0.3c5.4,0,14.8-0.1,20.7-0.3V23.4c0-10.1-0.7-16.5-2.2-20.9c2.4,0.1,5.3,0.1,8.1,0.1c2.8,0,5.8,0,8.4-0.1
		c-0.9,6.8-1.1,12.7-1.1,18.4v37.8c0,10.1,0.7,16.4,2.2,20.9C69,79.4,66,79.3,63,79.3s-6.1,0.1-8.6,0.2c1-6.4,1.5-12.9,1.5-21V42.3
		C48.8,42.1,42.1,42,35.1,42c-6.3,0-12.8,0.1-19.8,0.3v16.3c0,10.1,0.7,16.4,2.2,20.9c-1.9-0.1-5.1-0.2-8.3-0.2s-6.5,0.1-8.5,0.2
		c0.9-6.3,1.5-9.6,1.5-21C2.2,58.5,2.2,22.7,2.2,22.7z"/>
	<path d="M127.6,2.3c-0.8,7.3-1,13.8-1,20.4v22.9c0,10.1,0.2,13.3,1.9,17.4c2.7,6.4,9.2,10.4,18.5,10.4s15.7-3.2,19.5-10.4
		c1.8-3.8,2.2-12.3,2.2-19.6V21.9c0-8.4-0.7-14.5-2.3-19.5c1.7,0.1,3.8,0.1,5.9,0.1c2.8,0,5.6,0,8.1-0.1c-1.1,7.5-1.4,10.7-1.4,20.9
		v29.3c0,17.5-11.6,29-33.2,29c-17.2,0-32.2-6.2-32.2-27.2v-32c0-7.5-0.4-15.5-2.2-20.1c2.4,0.1,4.4,0.2,7.2,0.2
		C122.2,2.5,125.2,2.5,127.6,2.3L127.6,2.3z"/>
	<path d="M307.1,79.2c-3,0-6,0.1-8.8,0.3c0.4-6.6,0.7-12.3,0.1-19.3l-2.7-37.4c-0.2-2.5-0.4-5.6-0.4-8.4c-1.3,3.2-2.7,6.8-3.9,9.5
		l-17.9,42.3c-2,4.8-3.3,9.3-4.2,14.4c-1.5-0.1-3.3-0.2-5-0.2s-3.1,0.1-4.5,0.2c-0.3-2.2-1.3-5.8-2.8-9l-19.9-46.7
		c-1.3-3-2.6-6.2-3.3-8.6l-0.6,7.8l-3,38.2c-0.3,4.5,0,13.4,1.1,17.3c-1.9-0.1-4.4-0.2-7.2-0.2c-2.1,0-4.3,0-6.1,0.2
		c1.3-4.2,2.7-11.6,3.2-18l3.6-40.6c0.4-6,0.7-12.3-0.3-18.4c2.6,0.1,5.9,0.1,8.6,0.1c3.6,0,6-0.1,9.4-0.2c1,3.8,3.3,9.7,5,13.5
		l15.8,38.5c1.1,2.5,2,5.3,3.1,8.2c0.8-2.3,1.8-4.9,3-7.8L285.8,17c2-4.8,3-7.5,5.1-14.7c2.9,0.2,5.8,0.2,9.1,0.2
		c2.8,0,6.1,0,8.5-0.1c-0.4,4.8-0.2,7.6,0,11.6l2.8,44.7c0.4,7.5,1.5,14.4,4,20.7C312.7,79.3,309.8,79.2,307.1,79.2L307.1,79.2z"/>
	<path d="M391.8,51.9c-4.2-0.1-8.9-0.2-13.6-0.2s-9.6,0.1-13.7,0.2l-4.6,12.9c-0.7,2-1.5,5.7-1.5,9.3c0,1.8,0.2,3.4,0.7,5.3
		c-2.4-0.1-4.9-0.2-7.3-0.2c-2.7,0-5.4,0.1-8.2,0.2l-0.4-0.8c3-5.4,6-11.3,8.6-18l18.3-45.1c2.7-6.5,3.4-8.8,4.6-13.8
		c3.2-0.2,9.4-1,13.3-1.8c0.5,3.8,1.4,6.4,3.2,11.3l18,48.8c3.4,9.2,6.9,15.8,8.9,19.4c-2.2-0.2-5.8-0.2-8.8-0.2
		c-3.4,0-6.4,0.1-9.7,0.3c-0.8-6.2-2-11.1-4.2-17.4L391.8,51.9L391.8,51.9z M378.8,12.7l-11.9,31.9c3.4,0.2,7.3,0.2,11.2,0.2
		s7.6,0,11.2-0.2L378.8,12.7L378.8,12.7z"/>
	<path d="M467.9,2.3c1.9,3.3,3.1,5.9,7.3,11.5L503,49.9l7.3,9.5c-0.1-2-0.2-4.1-0.2-8.1V29.2c0-9.2-0.4-18.4-2.9-26.8
		c1.8,0.1,4.6,0.1,7.4,0.1c2.3,0,4.7,0,6.4-0.1c-1.4,5-1.4,18.5-1.4,31.8v30.4c0,5.2,0.3,10.7,1.2,15.9c-1.3-0.1-3.7-0.1-5.4-0.1
		c-2.1,0-4.2,0-5.6,0.1c-2.2-3.4-4.3-6.5-6.9-9.8l-36.4-46.4c-1.7-2.3-3.6-4.8-5.1-6.8c0.1,1.3,0.1,3,0.1,4.9v35.3
		c0,8.5,0.5,15.1,2.8,21.7c-2.1-0.1-4.6-0.2-7.1-0.2s-5,0.1-6.6,0.2c1.4-6.8,1.5-11.7,1.5-19.7V22.9c0-5.5-0.3-15.8-2.2-20.5
		c3.1,0.1,5.2,0.1,8.3,0.1C462.4,2.6,465.8,2.4,467.9,2.3L467.9,2.3z"/>
	<path d="M625.1,2.3c-0.8,6.6-1.1,12-1.1,20.4v35.9c0,10.1,0.8,16.4,2.2,20.9c-2-0.2-5.9-0.2-8.4-0.2c-3,0-6.1,0.1-8.3,0.2
		c1.1-5.9,1.4-13.3,1.4-21V22.7c0-7.5-0.4-15.4-2.2-20.4c2.4,0.1,5.3,0.2,7.8,0.2C620,2.5,622.7,2.4,625.1,2.3L625.1,2.3z"/>
	<path d="M685,2.3c1.9,3.3,3.1,5.9,7.3,11.5l27.8,36.1l7.3,9.5c-0.1-2-0.2-4.1-0.2-8.1V29.2c0-9.2-0.4-18.4-2.9-26.8
		c1.8,0.1,4.7,0.1,7.4,0.1c2.3,0,4.7,0,6.4-0.1c-1.4,5-1.4,18.5-1.4,31.8v30.4c0,5.2,0.3,10.7,1.2,15.9c-1.3-0.1-3.7-0.1-5.4-0.1
		c-2.1,0-4.2,0-5.7,0.1c-2.2-3.4-4.3-6.5-6.9-9.8l-36.4-46.4c-1.7-2.3-3.7-4.8-5.1-6.8c0.1,1.3,0.1,3,0.1,4.9v35.3
		c0,8.5,0.5,15.1,2.8,21.7c-2.1-0.1-4.7-0.2-7.1-0.2s-5,0.1-6.6,0.2c1.4-6.8,1.5-11.7,1.5-19.7V22.9c0-5.5-0.3-15.8-2.2-20.5
		c3.1,0.1,5.2,0.1,8.3,0.1C679.5,2.6,682.9,2.4,685,2.3L685,2.3z"/>
	<path d="M788.2,2.5c7.8,0,17.3-0.3,25.4-0.3c9.5,0,17.5,1,23.8,4.5c9.8,5.5,15.5,16.7,15.5,30.6c0,24.1-16.9,42.4-45,42.4
		c-5.8,0-11.6-0.4-18.3-0.4c-3.4,0-7.9,0.1-10.2,0.2c0.8-5.7,1.5-7.9,1.5-21V22.7c0-7.5-0.4-15.5-2.2-20.3
		C781.7,2.6,785.8,2.6,788.2,2.5L788.2,2.5z M830.9,17.4c-5.8-6.6-14-8.2-23.2-8.2c-4.7,0-8.9,0.3-13.1,0.6
		c-0.1,3.8-0.3,8.5-0.3,12.8v35.8c0,12.6,1.8,13.9,15,13.9c17.5,0,29-11.3,29-31.4C838.2,30.9,835.6,22.9,830.9,17.4z"/>
	<path d="M914.7,34.4c5.5,0,10.1-0.3,15.3-0.9l0.9,0.8c-1.2,2.5-2.3,5.8-3.1,8.4C922,42.2,917.9,42,913,42h-8.6v18.2
		c0,9.4,1.3,12.3,13.1,12.3c7,0,13.7-0.6,19.4-6l1.7,0.7c-1.1,4.1-2.1,8.8-2.8,12.8c-11.3-0.4-20.4-0.7-28.5-0.7s-13.1,0.1-17.5,0.2
		c0.9-5.5,1.5-12.5,1.5-21V22.7c0-7.5-0.4-15.5-2.2-20.3c2.9,0.1,5.9,0.1,7.8,0.1h20.5c6.2,0,9.8-0.1,16.8-0.3
		c-1.4,3.7-2.8,7.5-3.7,11.9l-1.5,0.2C925.2,9.5,918.8,9,912.6,9c-1.9,0-4.5,0.1-7.6,0.3c-0.2,3.1-0.4,8.3-0.4,12.9v12.2H914.7
		L914.7,34.4z"/>
	<path d="M975.1,2.5c3.5,0,7.2,0,9.7-0.2c0.4,2.9,1.4,5.9,3.4,9.7L998.7,32l8.5-16.2c1.1-2.3,2.8-7.6,2.8-11.3c0-0.8,0-1.3-0.1-2.1
		c1.9,0.1,4.7,0.1,7,0.1c3.4,0,6.5-0.1,9-0.2l0.3,1c-3.7,4.1-7,8.6-9.8,13.7l-12.5,21l15.6,26.9c4,6.9,6.9,10.7,10.1,13.4l-0.2,1
		c-5.3,0.1-12.5,0.2-18.4,0.6c-0.7-2.8-2.9-8-4.7-11.3l-13-23.5l-10.7,19.9c-2.3,4.7-3.1,8.3-3.1,10.7c0,1.2,0.1,2.3,0.4,3.7
		c-2.5-0.1-5.3-0.2-7.9-0.2c-2.9,0-5.7,0.1-8.1,0.2l-0.2-0.9c2.3-3,4.5-6.1,8-12.1l16.6-27.9l-11.5-20.4
		c-1.9-3.3-7.5-13.1-10.1-15.8C969.3,2.6,971.7,2.6,975.1,2.5L975.1,2.5z"/>
</g>
</svg>
