<?xml version="1.0" encoding="UTF-8"?><svg id="_레이어_2" xmlns="http://www.w3.org/2000/svg" viewBox="0 0 28.78 48"><defs><style>.cls-1{fill:none;}.cls-2{fill:#3a519b;}</style></defs><g id="_레이어_1-2"><path class="cls-2" d="m28.78,27.89l-2.67,8.56s-3.9-.7-6.25-.7h-5.24c-7.21,0-13.59.7-13.59.7,0,0,.05-4.98-1.04-7.48l.57-1.06c3.28-.94,10.46-6.17,14.91-11.14,2.09-2.33,3.49-6.53,1.12-9.16-3.95-4.38-10.67.54-12.85,5.89h-.98c-.12-4.34-1.96-8.95-1.96-8.95C.81,4.55,10.13.87,14.69.87c8.18,0,12.15,3.69,12.15,8.88,0,10.69-11.08,12.1-15.37,19.84,0,0,13.24-.17,17.02-2.81l.28,1.12Z"/><rect class="cls-1" x="0" width="28.78" height="48"/></g></svg>