<?xml version="1.0" encoding="UTF-8"?><svg id="_레이어_2" xmlns="http://www.w3.org/2000/svg" viewBox="0 0 38.19 48"><defs><style>.cls-1{fill:none;}.cls-2{fill:#3a519b;}</style></defs><g id="_레이어_1-2"><path class="cls-2" d="m27.13,29.69v12.47c0,2.18.27,3.7,4.91,3.7l-.94,2.13s-3.3-.47-8.26-.47-8.26.47-8.26.47l-.94-2.13c4.64,0,4.91-1.52,4.91-3.7v-12.47c-11.77,0-18.57.73-18.57.73,0,0,.26-3.3,0-5.86C7.77,20.44,24.48,3.78,24.98,0l2.15.7v10.49c-3.52.85-13.97,10.17-16.29,13.95h7.73c0-1.91-.71-5.26-.71-5.26l9.01-2.23,1.09.74s-.83,5.27-.83,6.76c3.53,0,10.6-1.43,10.6-1.43l.47,1.17-2.04,5.54s-5.18-.73-9.02-.73Z"/><rect class="cls-1" width="38.19" height="48"/></g></svg>