<?xml version="1.0" encoding="UTF-8"?><svg id="_레이어_2" xmlns="http://www.w3.org/2000/svg" viewBox="0 0 28.93 48"><defs><style>.cls-1{fill:none;}.cls-2{fill:#3a519b;}</style></defs><g id="_레이어_1-2"><path class="cls-2" d="m19.18,21.16l-.05-.54c3.12-.83,8.2-4.54,8.2-9.13,0-5.19-3.98-10.63-12.15-10.63C10.63.87,1.47,4.16,1.47,4.16c0,0,1.47,4,1.79,9.34h.98c.76-3.02,3.46-6.3,6.91-6.67,3.45-.38,7.66,1.11,7.66,5.09,0,6.75-5.89,8.77-12.37,8.23v5.93c3.41-.72,14.38-1.41,14.38,5.82,0,5.27-4.2,8.18-8.56,8.18-8.89,0-11.1-5.52-11.1-5.52L0,35.35c.93,2.17,1.51,8.32,1.51,8.32,0,0,4.71,2.77,11.6,2.77,8.5,0,15.82-5.26,15.82-14.57,0-8.22-5.56-10.71-9.75-10.71Z"/><rect class="cls-1" width="28.93" height="48"/></g></svg>