<?xml version="1.0" encoding="utf-8"?>
<!-- Generator: Adobe Illustrator 27.7.0, SVG Export Plug-In . SVG Version: 6.00 Build 0)  -->
<svg version="1.1" id="_레이어_2" xmlns="http://www.w3.org/2000/svg" xmlns:xlink="http://www.w3.org/1999/xlink" x="0px"
	 y="0px" viewBox="0 0 31.1 48" style="enable-background:new 0 0 31.1 48;" xml:space="preserve">
<style type="text/css">
	.st0{fill:none;}
</style>
<g id="_레이어_1-2">
	<path d="M1.4,42.2c-0.2-3.4-0.8-7.7-1.4-9.3l1.3-0.5c1,3,5.6,7.7,12.1,7.7c4.5,0,9.4-2.6,9.4-9.1c0-9.3-12.4-9.5-17.6-5.7
		c-0.9-1.4-2.7-3.4-4.1-4.4C3,18,4,5.1,3.4,1.4c5.4,0.2,17.8,0.2,24-1.4l1.3,1l-1.6,7.1c-3.9-1.6-15.3-1.5-15.3-1.5
		c0,5-1.5,11.5-1.5,11.5l0.5,0.3c1.8-1.4,5.9-2.5,10.4-1.4c5.9,1.5,9.9,7.1,9.9,13.5c0,7.7-4.6,15.9-16.8,15.9
		C6.6,46.4,1.4,42.2,1.4,42.2L1.4,42.2z"/>
	<rect class="st0" width="31.1" height="48"/>
</g>
</svg>
