<?xml version="1.0" encoding="utf-8"?>
<!-- Generator: Adobe Illustrator 27.7.0, SVG Export Plug-In . SVG Version: 6.00 Build 0)  -->
<svg version="1.1" id="_레이어_2" xmlns="http://www.w3.org/2000/svg" xmlns:xlink="http://www.w3.org/1999/xlink" x="0px"
	 y="0px" viewBox="0 0 20.7 48" style="enable-background:new 0 0 20.7 48;" xml:space="preserve">
<style type="text/css">
	.st0{fill:none;}
</style>
<g id="_레이어_1-2">
	<path d="M20.7,34.4l-0.8,2c0,0-5.4-0.5-9.5-0.5s-9.5,0.5-9.5,0.5l-0.8-2c5.1,0,6.1-3.7,6.1-5.8V9.4c0-2.1-1-5.8-6.1-5.8l0.8-2
		c0,0,4.5,0.5,9.5,0.5s9.5-0.5,9.5-0.5l0.8,2c-5.1,0-6.1,3.7-6.1,5.8v19.3C14.5,30.7,15.5,34.4,20.7,34.4L20.7,34.4z"/>
	<rect class="st0" width="20.7" height="48"/>
</g>
</svg>
