<?xml version="1.0" encoding="utf-8"?>
<!-- Generator: Adobe Illustrator 27.7.0, SVG Export Plug-In . SVG Version: 6.00 Build 0)  -->
<svg version="1.1" id="_레이어_2" xmlns="http://www.w3.org/2000/svg" xmlns:xlink="http://www.w3.org/1999/xlink" x="0px"
	 y="0px" viewBox="0 0 28.9 48" style="enable-background:new 0 0 28.9 48;" xml:space="preserve">
<style type="text/css">
	.st0{fill:none;}
</style>
<g id="_레이어_1-2">
	<path d="M19.2,21.2l0-0.5c3.1-0.8,8.2-4.5,8.2-9.1c0-5.2-4-10.6-12.1-10.6c-4.6,0-13.7,3.3-13.7,3.3s1.5,4,1.8,9.3h1
		c0.8-3,3.5-6.3,6.9-6.7c3.4-0.4,7.7,1.1,7.7,5.1c0,6.8-5.9,8.8-12.4,8.2v5.9c3.4-0.7,14.4-1.4,14.4,5.8c0,5.3-4.2,8.2-8.6,8.2
		c-8.9,0-11.1-5.5-11.1-5.5L0,35.3c0.9,2.2,1.5,8.3,1.5,8.3s4.7,2.8,11.6,2.8c8.5,0,15.8-5.3,15.8-14.6
		C28.9,23.6,23.4,21.2,19.2,21.2z"/>
	<rect class="st0" width="28.9" height="48"/>
</g>
</svg>
