<?xml version="1.0" encoding="utf-8"?>
<!-- Generator: Adobe Illustrator 27.7.0, SVG Export Plug-In . SVG Version: 6.00 Build 0)  -->
<svg version="1.1" id="_레이어_2" xmlns="http://www.w3.org/2000/svg" xmlns:xlink="http://www.w3.org/1999/xlink" x="0px"
	 y="0px" viewBox="0 0 38.2 48" style="enable-background:new 0 0 38.2 48;" xml:space="preserve">
<style type="text/css">
	.st0{fill:none;}
</style>
<g id="_레이어_1-2">
	<path d="M27.1,29.7v12.5c0,2.2,0.3,3.7,4.9,3.7L31.1,48c0,0-3.3-0.5-8.3-0.5S14.6,48,14.6,48l-0.9-2.1c4.6,0,4.9-1.5,4.9-3.7V29.7
		C6.8,29.7,0,30.4,0,30.4s0.3-3.3,0-5.9C7.8,20.4,24.5,3.8,25,0l2.1,0.7v10.5c-3.5,0.9-14,10.2-16.3,13.9h7.7c0-1.9-0.7-5.3-0.7-5.3
		l9-2.2l1.1,0.7c0,0-0.8,5.3-0.8,6.8c3.5,0,10.6-1.4,10.6-1.4l0.5,1.2l-2,5.5C36.2,30.4,31,29.7,27.1,29.7L27.1,29.7z"/>
	<rect class="st0" width="38.2" height="48"/>
</g>
</svg>
