<?xml version="1.0" encoding="UTF-8"?><svg id="_레이어_2" xmlns="http://www.w3.org/2000/svg" viewBox="0 0 31.1 48.01"><defs><style>.cls-1{fill:none;}.cls-2{fill:#3a519b;}</style></defs><g id="_레이어_1-2"><path class="cls-2" d="m1.4,42.22c-.19-3.44-.79-7.67-1.4-9.34l1.29-.46c1.01,3.03,5.56,7.65,12.06,7.65,4.54,0,9.42-2.57,9.42-9.11,0-9.34-12.42-9.47-17.61-5.67-.92-1.44-2.7-3.35-4.06-4.39C2.98,18.05,3.98,5.11,3.43,1.39c5.4.16,17.84.2,23.95-1.39l1.33.96-1.64,7.1c-3.87-1.62-15.26-1.46-15.26-1.46,0,5.01-1.46,11.5-1.46,11.5l.46.3c1.78-1.41,5.94-2.52,10.35-1.35,5.85,1.55,9.95,7.12,9.95,13.46,0,7.7-4.63,15.92-16.75,15.92-7.77,0-12.94-4.21-12.94-4.21Z"/><rect class="cls-1" y="0" width="31.1" height="48"/></g></svg>