<?xml version="1.0" encoding="utf-8"?>
<!-- Generator: Adobe Illustrator 27.7.0, SVG Export Plug-In . SVG Version: 6.00 Build 0)  -->
<svg version="1.1" id="_레이어_2" xmlns="http://www.w3.org/2000/svg" xmlns:xlink="http://www.w3.org/1999/xlink" x="0px"
	 y="0px" viewBox="0 0 28.8 48" style="enable-background:new 0 0 28.8 48;" xml:space="preserve">
<style type="text/css">
	.st0{fill:none;}
</style>
<g id="_레이어_1-2">
	<path d="M28.8,27.9l-2.7,8.6c0,0-3.9-0.7-6.2-0.7h-5.2C7.4,35.8,1,36.5,1,36.5s0-5-1-7.5l0.6-1.1C3.8,27,11,21.7,15.5,16.8
		c2.1-2.3,3.5-6.5,1.1-9.2C12.6,3.2,5.9,8.2,3.7,13.5h-1c-0.1-4.3-2-8.9-2-8.9c0,0,9.3-3.7,13.9-3.7c8.2,0,12.2,3.7,12.2,8.9
		c0,10.7-11.1,12.1-15.4,19.8c0,0,13.2-0.2,17-2.8L28.8,27.9L28.8,27.9z"/>
	<rect class="st0" width="28.8" height="48"/>
</g>
</svg>
