<?xml version="1.0" encoding="UTF-8"?><svg id="_레이어_2" xmlns="http://www.w3.org/2000/svg" viewBox="0 0 278.25 34.64"><defs><style>.cls-1{fill:#3a519b;}</style></defs><g id="_레이어_1-2"><path class="cls-1" d="m7.65,1.16c-.23,1.95-.09,4.27.19,6.4l2.23,16.69c.19,1.3.32,2.55.42,3.57l2.09-5.43,5.47-14.42c.79-2.09,1.58-4.78,2.04-6.96.56.09,1.53.09,2.6.09s2.09,0,2.69-.09c.37,2.18.79,4.08,1.48,6.21l5.1,15.67,1.62,4.96c.28-1.44.6-3.11.88-4.31l2.92-14.84c.23-1.34.37-2.5.37-3.62,0-1.53-.23-2.83-.7-3.9,1.02.05,2.18.05,3.34.05s2.5,0,3.2-.09l.23.33c-1.07,1.99-1.95,5.05-2.41,7l-4.96,20.59c-.42,1.67-.93,3.15-1.02,5.05-.65-.05-1.62-.09-2.64-.09s-2.09.05-2.78.09c-.09-.97-.32-2.09-.88-3.62l-6.63-19.11c-.42-1.21-.74-2.36-1.02-3.34l-1.34,3.71-7.09,17.95c-.6,1.62-1.07,2.69-1.3,4.41-.7-.05-1.62-.09-2.55-.09-1.02,0-2.09.05-2.88.09-.14-1.34-.28-2.5-.51-3.8L2.5,10.29C2.13,8.25,1.11,3.99,0,1.21c1.02.05,2.04.05,3.25.05,1.39,0,3.34,0,4.41-.09Z"/><path class="cls-1" d="m73.4,21.93c-1.76-.05-3.71-.09-5.7-.09s-4.04.05-5.75.09l-1.95,5.43c-.28.83-.65,2.37-.65,3.9,0,.74.09,1.44.28,2.23-1.02-.05-2.04-.09-3.06-.09-1.11,0-2.27.05-3.43.09l-.18-.32c1.25-2.27,2.5-4.73,3.62-7.56l7.65-18.87c1.11-2.74,1.44-3.66,1.95-5.8,1.34-.09,3.94-.42,5.56-.74.23,1.58.6,2.69,1.34,4.73l7.56,20.45c1.44,3.85,2.88,6.63,3.71,8.12-.93-.09-2.41-.09-3.66-.09-1.44,0-2.69.05-4.08.14-.33-2.6-.83-4.64-1.76-7.28l-1.44-4.31Zm-5.43-16.42l-4.96,13.35c1.44.09,3.06.09,4.68.09s3.2,0,4.68-.09l-4.41-13.35Z"/><path class="cls-1" d="m107.43,3.71c-.83,0-1.53.05-3.11.23-.09,1.76-.18,3.06-.18,5.43v15.35c0,4.22.32,6.86.93,8.76-.74-.05-2.09-.09-3.43-.09s-2.74.05-3.57.09c.46-3.15.6-4.73.6-8.81v-14.98c0-3.15-.19-6.49-.93-8.49,1.21.05,2.18.05,3.2.05,3.06,0,5.19-.14,9-.14,3.57,0,5.38.42,6.96,1.72,1.53,1.25,2.32,3.15,2.32,5.66,0,4.36-2.78,6.63-6.49,8.07,1.39,1.86,3.29,4.78,5.43,7.98,2.69,4.03,5.19,7.33,7.19,8.53l-.19.42c-3.06.09-5.75.09-7.88.28-.74-1.25-1.39-2.46-2.13-3.76-1.62-2.74-3.62-5.75-5.7-8.72-1.53-2.18-3.01-3.9-4.17-5.1l.14-.56c.65.05,1.62.18,2.64,0,2.5-.23,5.47-1.86,5.47-6.12,0-3.71-2.23-5.8-6.07-5.8Z"/><path class="cls-1" d="m147.91,3.71c-.83,0-1.53.05-3.11.23-.09,1.76-.19,3.06-.19,5.43v15.35c0,4.22.33,6.86.93,8.76-.74-.05-2.09-.09-3.43-.09s-2.74.05-3.57.09c.46-3.15.6-4.73.6-8.81v-14.98c0-3.15-.19-6.49-.93-8.49,1.21.05,2.18.05,3.2.05,3.06,0,5.19-.14,9-.14,3.57,0,5.38.42,6.96,1.72,1.53,1.25,2.32,3.15,2.32,5.66,0,4.36-2.78,6.63-6.49,8.07,1.39,1.86,3.29,4.78,5.43,7.98,2.69,4.03,5.19,7.33,7.19,8.53l-.19.42c-3.06.09-5.75.09-7.88.28-.74-1.25-1.39-2.46-2.13-3.76-1.62-2.74-3.62-5.75-5.7-8.72-1.53-2.18-3.01-3.9-4.17-5.1l.14-.56c.65.05,1.62.18,2.64,0,2.5-.23,5.47-1.86,5.47-6.12,0-3.71-2.23-5.8-6.07-5.8Z"/><path class="cls-1" d="m185.46,1.16c-.32,2.78-.46,5.01-.46,8.53v15.02c0,4.22.32,6.86.93,8.76-.83-.09-2.46-.09-3.52-.09-1.25,0-2.55.05-3.48.09.46-2.46.6-5.56.6-8.81v-14.98c0-3.15-.19-6.45-.93-8.53,1.02.05,2.23.09,3.25.09,1.48,0,2.6-.05,3.62-.09Z"/><path class="cls-1" d="m200.95,17.58c0-10.2,7.47-17.58,17.67-17.58s16.79,6.86,16.79,16.74c0,10.53-7.51,17.9-18.13,17.9-9.69,0-16.32-6.91-16.32-17.06Zm28.15.32c0-8.95-4.36-14.93-10.8-14.93-6.82,0-10.99,5.19-10.99,13.77s4.41,14.89,10.99,14.89,10.8-5.29,10.8-13.73Z"/><path class="cls-1" d="m260.35,3.71c-.83,0-1.53.05-3.11.23-.09,1.76-.19,3.06-.19,5.43v15.35c0,4.22.33,6.86.93,8.76-.74-.05-2.09-.09-3.43-.09s-2.74.05-3.57.09c.46-3.15.6-4.73.6-8.81v-14.98c0-3.15-.19-6.49-.93-8.49,1.21.05,2.18.05,3.2.05,3.06,0,5.19-.14,9-.14,3.57,0,5.38.42,6.96,1.72,1.53,1.25,2.32,3.15,2.32,5.66,0,4.36-2.78,6.63-6.49,8.07,1.39,1.86,3.29,4.78,5.43,7.98,2.69,4.03,5.19,7.33,7.19,8.53l-.19.42c-3.06.09-5.75.09-7.88.28-.74-1.25-1.39-2.46-2.13-3.76-1.62-2.74-3.62-5.75-5.7-8.72-1.53-2.18-3.01-3.9-4.17-5.1l.14-.56c.65.05,1.62.18,2.64,0,2.5-.23,5.47-1.86,5.47-6.12,0-3.71-2.23-5.8-6.07-5.8Z"/></g></svg>